<svg width="32" height="25" viewBox="0 0 32 25" fill="none" xmlns="http://www.w3.org/2000/svg">
<rect y="0.5" width="32" height="24" rx="2" fill="white"/>
<mask id="mask0_7703_56713" style="mask-type:alpha" maskUnits="userSpaceOnUse" x="0" y="0" width="32" height="25">
<rect y="0.5" width="32" height="24" rx="2" fill="white"/>
</mask>
<g mask="url(#mask0_7703_56713)">
<path fill-rule="evenodd" clip-rule="evenodd" d="M0 24.5H32V0.5H0V24.5Z" fill="#F0371D"/>
<path fill-rule="evenodd" clip-rule="evenodd" d="M15.982 10.275C17.0824 9.30792 17.1493 9.09165 17.413 8.23966C17.501 7.95527 17.4389 7.7217 17.3656 7.44586C17.2599 7.04812 17.1308 6.56249 17.3947 5.70991C16.1941 5.30031 14.7992 6.33083 14.2791 8.01165C13.7589 9.69246 14.3106 11.3871 15.5111 11.7967C15.7261 11.87 15.702 11.817 15.6367 11.6734C15.5223 11.4215 15.2811 10.891 15.982 10.275ZM13.7033 12.0413C13.1674 10.6436 12.9922 10.5099 12.3019 9.98336C12.0716 9.8076 11.8408 9.79741 11.5683 9.78537C11.1754 9.76801 10.6956 9.74681 10.0049 9.21989C9.26293 10.2922 9.76529 12.0036 11.127 13.0424C12.4887 14.0812 14.1941 14.0541 14.9361 12.9817C15.0689 12.7897 15.0134 12.7974 14.8633 12.8182C14.5997 12.8547 14.0446 12.9315 13.7033 12.0413ZM20.5717 12.8047C19.7186 12.8047 19.502 12.8047 18.286 12.0047C17.5115 11.4952 17.1054 11.8999 16.9127 12.0921C16.8028 12.2016 16.7622 12.242 16.7622 12.0047C16.7622 10.6792 18.1267 9.60473 19.8098 9.60473C21.493 9.60473 22.8575 10.6792 22.8575 12.0047C22.0037 12.0047 21.6037 12.2837 21.2761 12.5121C21.0489 12.6706 20.8565 12.8047 20.5717 12.8047ZM20.5717 11.3001C20.5717 11.521 20.4012 11.7001 20.1908 11.7001C19.9804 11.7001 19.8098 11.521 19.8098 11.3001C19.8098 11.0792 19.9804 10.9001 20.1908 10.9001C20.4012 10.9001 20.5717 11.0792 20.5717 11.3001ZM17.4312 14.84C17.0824 16.3015 17.1493 16.5178 17.413 17.3698C17.501 17.6542 17.6819 17.8048 17.8956 17.9828C18.2038 18.2393 18.5801 18.5525 18.8439 19.4051C20.0445 18.9955 20.5961 17.3009 20.076 15.6201C19.5559 13.9393 18.1609 12.9088 16.9604 13.3184C16.7454 13.3917 16.7946 13.4197 16.9278 13.4956C17.1614 13.6287 17.6535 13.9091 17.4312 14.84ZM18.7758 16.9048C18.5757 16.9731 18.3608 16.8581 18.2958 16.648C18.2307 16.4379 18.3402 16.2123 18.5403 16.144C18.7404 16.0757 18.9554 16.1907 19.0204 16.4008C19.0854 16.6109 18.9759 16.8366 18.7758 16.9048ZM14.599 14.8626C13.1674 14.9659 12.9922 15.0995 12.3019 15.6261C12.0716 15.8019 11.991 16.0291 11.8959 16.2975C11.7588 16.6845 11.5913 17.1571 10.9006 17.684C11.6426 18.7563 13.348 18.7835 14.7097 17.7447C16.0714 16.7059 16.5737 14.9945 15.8317 13.9222C15.6989 13.7302 15.6887 13.788 15.6612 13.9444C15.6128 14.2188 15.5108 14.7969 14.599 14.8626ZM13.1442 16.8433C13.0206 16.6646 13.0583 16.4145 13.2285 16.2846C13.3987 16.1548 13.6369 16.1944 13.7606 16.3731C13.8843 16.5518 13.8465 16.802 13.6763 16.9318C13.5061 17.0617 13.2679 17.0221 13.1442 16.8433ZM11.4597 11.2006C11.5833 11.0219 11.8216 10.9823 11.9918 11.1121C12.162 11.242 12.1997 11.4921 12.0761 11.6708C11.9524 11.8496 11.7142 11.8892 11.544 11.7593C11.3737 11.6295 11.336 11.3793 11.4597 11.2006ZM16.0501 7.7747C16.2502 7.84297 16.3597 8.06863 16.2947 8.27873C16.2297 8.48884 16.0148 8.60382 15.8147 8.53555C15.6146 8.46728 15.5051 8.24162 15.5701 8.03152C15.6351 7.82142 15.85 7.70644 16.0501 7.7747Z" fill="white"/>
</g>
</svg>
