<svg width="126" height="126" viewBox="0 0 126 126" fill="none" xmlns="http://www.w3.org/2000/svg">
<g opacity="0.2">
<path d="M63 3C96.114 3 123 29.886 123 63C123 96.114 96.114 123 63 123C29.886 123 3 96.114 3 63C3 29.886 29.886 3 63 3Z" stroke="#00D09C" stroke-width="4.48127" stroke-linecap="round"/>
</g>
<path d="M63.3759 10.4736C92.1851 10.4736 115.576 33.8645 115.576 62.6737C115.576 91.483 92.1851 114.874 63.3759 114.874C34.5666 114.874 11.1758 91.483 11.1758 62.6737C11.1758 33.8645 34.5666 10.4736 63.3759 10.4736Z" fill="#00D09C"/>
<path d="M37.918 65.4821C37.918 65.4821 53.0044 81.5114 53.0044 80.5685C53.0044 79.6256 88.8345 44.7383 88.8345 44.7383" fill="#00D09C"/>
<path d="M37.918 65.4821C37.918 65.4821 53.0044 81.5114 53.0044 80.5685C53.0044 79.6256 88.8345 44.7383 88.8345 44.7383" stroke="white" stroke-width="18.8046" stroke-linecap="round" stroke-linejoin="round"/>
</svg>
