<svg width="16" height="16" viewBox="0 0 16 16" fill="none" xmlns="http://www.w3.org/2000/svg">
<rect width="16" height="16" rx="8" fill="#19151D" fill-opacity="0.8"/>
<path d="M11.9838 11.3592C11.9515 9.3859 11.6283 8.81841 9.15556 8.45728C9.15556 8.45728 8.8 8.80551 7.99192 8.80551C7.18384 8.80551 6.82828 8.45728 6.82828 8.45728C4.38788 8.80551 4.03232 9.3601 4 11.2818C4 11.4366 4 11.4495 4 11.4237C4 11.4624 4 11.5269 4 11.6301C4 11.6301 4.58182 12.5716 7.99192 12.5716C11.402 12.5716 12 11.6301 12 11.6301C12 11.5656 12 11.514 12 11.4753C12 11.5011 11.9838 11.4753 11.9838 11.3592Z" stroke="white" stroke-width="0.9955" stroke-miterlimit="10" stroke-linecap="round" stroke-linejoin="round"/>
<path d="M8 8.00014C9.09924 8.00014 10 6.97947 10 5.71443C10 4.44938 9.70992 3.42871 8 3.42871C6.29008 3.42871 6 4.44938 6 5.71443C6 6.97947 6.90076 8.00014 8 8.00014Z" stroke="white" stroke-width="0.9955" stroke-miterlimit="10" stroke-linecap="round" stroke-linejoin="round"/>
</svg>
