<svg width="36" height="36" viewBox="0 0 36 36" fill="none" xmlns="http://www.w3.org/2000/svg">
<rect width="36" height="36" rx="18" fill="#19151D" fill-opacity="0.8"/>
<path d="M26.9636 25.5579C26.8909 21.1179 26.1636 19.8411 20.6 19.0285C20.6 19.0285 19.8 19.812 17.9818 19.812C16.1636 19.812 15.3636 19.0285 15.3636 19.0285C9.87273 19.812 9.07273 21.0599 9 25.3837C9 25.732 9 25.761 9 25.7029C9 25.79 9 25.9351 9 26.1673C9 26.1673 10.3091 28.2857 17.9818 28.2857C25.6545 28.2857 27 26.1673 27 26.1673C27 26.0222 27 25.9061 27 25.819C27 25.8771 26.9636 25.819 26.9636 25.5579Z" stroke="white" stroke-width="0.9955" stroke-miterlimit="10" stroke-linecap="round" stroke-linejoin="round"/>
<path d="M18 17.9999C20.4733 17.9999 22.5 15.7035 22.5 12.8571C22.5 10.0107 21.8473 7.71423 18 7.71423C14.1527 7.71423 13.5 10.0107 13.5 12.8571C13.5 15.7035 15.5267 17.9999 18 17.9999Z" stroke="white" stroke-width="0.9955" stroke-miterlimit="10" stroke-linecap="round" stroke-linejoin="round"/>
</svg>
