<svg width="14" height="14" viewBox="0 0 14 14" fill="none" xmlns="http://www.w3.org/2000/svg">
<path d="M0.349184 1.34676C0.0737097 1.07129 0.0737094 0.624658 0.349184 0.349184C0.624658 0.0737096 1.07129 0.0737096 1.34676 0.349184L13.6503 12.6527C13.9257 12.9282 13.9257 13.3748 13.6503 13.6503C13.3748 13.9257 12.9282 13.9257 12.6527 13.6503L0.349184 1.34676Z" fill="#3B3A3C"/>
<path d="M13.6503 1.34676C13.9257 1.07129 13.9257 0.624658 13.6503 0.349184C13.3748 0.0737096 12.9282 0.0737096 12.6527 0.349184L0.349191 12.6527C0.0737166 12.9282 0.0737166 13.3748 0.349191 13.6503C0.624665 13.9257 1.0713 13.9257 1.34677 13.6503L13.6503 1.34676Z" fill="#3B3A3C"/>
</svg>
