<svg width="30" height="30" viewBox="0 0 30 30" fill="none" xmlns="http://www.w3.org/2000/svg">
<path d="M12.7422 0.934431L13.987 1.3018C14.4514 1.43957 14.948 1.42645 15.4059 1.269L16.6378 0.842588C17.444 0.560498 18.334 0.750745 18.9726 1.32805L19.94 2.21368C20.3012 2.54169 20.7527 2.75162 21.2299 2.81066L22.5199 2.96811C23.3648 3.07307 24.0871 3.63069 24.4161 4.4376L24.8998 5.6578C25.0804 6.11046 25.4029 6.49751 25.8092 6.76648L26.9056 7.48155C27.6215 7.94733 28.0343 8.77392 27.9827 9.63987L27.9053 10.9585C27.8795 11.4505 27.9956 11.936 28.2536 12.3558L28.9373 13.4776C29.3823 14.2124 29.4016 15.1439 28.9889 15.8983L28.3568 17.0529C28.1246 17.4794 28.0214 17.9779 28.073 18.4634L28.2085 19.7754C28.2988 20.6348 27.9182 21.4811 27.2217 21.9797L26.1575 22.7407C25.764 23.0228 25.4609 23.4229 25.2997 23.8887L24.8611 25.1286C24.5709 25.9421 23.8743 26.539 23.0358 26.6768L21.7524 26.8933C21.2751 26.972 20.8365 27.2016 20.4882 27.5493L19.5595 28.4743C18.9532 29.0844 18.0696 29.3075 17.2505 29.0647L16.0057 28.6974C15.5414 28.5596 15.0447 28.5727 14.5868 28.7302L13.3549 29.1566C12.5487 29.4387 11.6587 29.2484 11.0201 28.6711L10.0527 27.7855C9.69152 27.4575 9.24005 27.2475 8.76277 27.1885L7.47284 27.0311C6.62794 26.9261 5.90558 26.3685 5.57665 25.5616L5.08002 24.3414C4.89943 23.8887 4.57695 23.5017 4.17062 23.2327L3.07418 22.5176C2.35827 22.0518 1.94549 21.2252 1.99709 20.3593L2.07449 19.0407C2.10029 18.5487 1.98419 18.0632 1.72621 17.6434L1.06189 16.5281C0.616866 15.7934 0.597517 14.8618 1.01029 14.1074L1.64236 12.9528C1.87455 12.5264 1.97774 12.0344 1.92614 11.5423L1.7907 10.2303C1.70041 9.3709 2.08094 8.52463 2.7775 8.02605L3.84169 7.26506C4.23512 6.98297 4.53825 6.5828 4.69949 6.11702L5.13807 4.87713C5.4283 4.06366 6.12487 3.46668 6.96332 3.32892L8.2468 3.11243C8.72407 3.03371 9.16265 2.8041 9.51093 2.45641L10.4397 1.53141C11.0395 0.914751 11.9231 0.691703 12.7422 0.934431Z" stroke="#3B3A3C" stroke-miterlimit="10" stroke-linecap="round" stroke-linejoin="round"/>
</svg>
