<svg width="80" height="80" viewBox="0 0 80 80" fill="none" xmlns="http://www.w3.org/2000/svg">
<rect width="80" height="80" rx="40" fill="white"/>
<path d="M62.764 35.7902C62.7265 35.6393 62.6889 35.4506 62.6514 35.2997C62.6139 41.5249 56.0831 47.6747 47.0375 49.5989C37.0912 51.7494 27.8204 47.9765 26.3941 41.1477C24.8928 34.3565 31.799 27.1126 41.7828 24.9621C42.9839 24.698 44.185 24.5471 45.3485 24.4339C42.6086 24.283 39.681 24.5094 36.7158 25.1507C24.1421 27.8672 15.4344 36.9975 17.236 45.5996C19.0751 54.164 30.7105 58.9556 43.2842 56.2391C55.8579 53.5226 64.5656 44.3923 62.764 35.7902Z" fill="#CC1F26"/>
<path d="M58.5605 37.601L49.9654 38.3555L58.4854 36.4314C58.3353 34.96 58.0726 33.5263 57.6222 32.0549L49.1021 34.9222L57.2468 30.923C57.1342 30.5834 56.9841 30.2062 56.834 29.8666C56.4211 28.8479 55.8956 27.9047 55.3702 27.037L47.6383 31.753L54.7321 26.0937C53.9064 24.9242 52.968 23.8678 51.9922 23L43.1343 30.093C43.6973 30.7721 44.1852 31.6021 44.5605 32.5453C44.6731 32.8472 44.7857 33.149 44.8608 33.4508C44.8983 33.6017 44.9359 33.7149 44.9734 33.8658C45.1611 34.6204 45.2361 35.4127 45.2737 36.1673C45.2737 36.3559 45.2737 36.5823 45.2737 36.7709C45.2361 37.4501 45.1235 38.1292 44.9359 38.7706C44.8608 39.0347 44.7857 39.2988 44.6731 39.5251C44.4855 39.9779 44.2978 40.4306 44.0351 40.8079H58.4479C58.598 39.7892 58.598 38.6951 58.5605 37.601Z" fill="#CC1F26"/>
<path d="M53.4559 42.3924L53.4934 42.3169H37.9546L39.6811 45.4488H51.7669L53.4559 42.3924Z" fill="#CC1F26"/>
</svg>
