<svg width="35" height="46" viewBox="0 0 35 46" fill="none" xmlns="http://www.w3.org/2000/svg">
<path d="M22.0396 13.2903V1.93412C22.0396 1.02523 21.2814 0.286133 20.3489 0.286133H14.6414C13.709 0.286133 12.9507 1.02523 12.9507 1.93412V13.2903H7.61215C7.05883 13.2903 6.77192 13.9295 7.1408 14.329L17.4798 25.3855L27.8495 14.329C28.2184 13.9295 27.9315 13.2903 27.3782 13.2903H22.0396Z" fill="url(#paint0_linear_10482_5607)"/>
<path d="M8.24742 32.7865C7.61212 32.437 6.86411 32.2572 6.02387 32.2572H0.572588V45.9904H2.55022V40.6669H6.02387C6.86411 40.6669 7.60188 40.4971 8.24742 40.1476C8.88272 39.798 9.38482 39.3086 9.73321 38.6793C10.0816 38.0501 10.266 37.311 10.266 36.472C10.266 35.6331 10.0918 34.894 9.73321 34.2647C9.38482 33.6255 8.88272 33.1361 8.24742 32.7865ZM7.97076 37.7105C7.79657 38.0701 7.5404 38.3498 7.22275 38.5395C6.9051 38.7393 6.52597 38.8292 6.0956 38.8292H2.55022V34.085H6.0956C6.52597 34.085 6.89485 34.1848 7.22275 34.3846C7.55064 34.5843 7.79657 34.864 7.97076 35.2236C8.14496 35.5831 8.23718 36.0026 8.23718 36.472C8.23718 36.9415 8.14496 37.351 7.97076 37.7105Z" fill="url(#paint1_linear_10482_5607)"/>
<path d="M20.103 32.8365C19.3037 32.4569 18.3405 32.2572 17.2032 32.2572H12.7458V45.9904H17.1929C18.3201 45.9904 19.2935 45.8007 20.0927 45.4111C20.892 45.0316 21.5068 44.4623 21.9269 43.7332C22.347 42.9941 22.552 42.1052 22.552 41.0664V37.1712C22.552 36.1325 22.347 35.2435 21.9269 34.5044C21.5068 33.7853 20.9022 33.226 20.103 32.8365ZM20.5334 41.1463C20.5334 42.1052 20.2464 42.8443 19.6726 43.3736C19.0988 43.903 18.2893 44.1627 17.2544 44.1627H14.7029V34.0949H17.2544C18.2996 34.0949 19.0988 34.3546 19.6726 34.884C20.2464 35.4133 20.5334 36.1524 20.5334 37.1113V41.1463Z" fill="url(#paint2_linear_10482_5607)"/>
<path d="M34.428 34.0949V32.2572H25.5645V46.0004H27.5421V40.2175H33.3623V38.3797H27.5421V34.0949H34.428Z" fill="url(#paint3_linear_10482_5607)"/>
<path d="M32.7987 28.8713H2.20184C1.17716 28.8713 0.357422 28.0623 0.357422 27.0735C0.357422 26.0747 1.18741 25.2757 2.20184 25.2757H32.7987C33.8234 25.2757 34.6431 26.0847 34.6431 27.0735C34.6431 28.0623 33.8234 28.8713 32.7987 28.8713Z" fill="url(#paint4_linear_10482_5607)"/>
<defs>
<linearGradient id="paint0_linear_10482_5607" x1="34.6431" y1="0.286131" x2="-9.24258" y2="33.2004" gradientUnits="userSpaceOnUse">
<stop stop-color="#FF6A00"/>
<stop offset="1" stop-color="#EE0979"/>
</linearGradient>
<linearGradient id="paint1_linear_10482_5607" x1="34.6431" y1="0.286131" x2="-9.24258" y2="33.2004" gradientUnits="userSpaceOnUse">
<stop stop-color="#FF6A00"/>
<stop offset="1" stop-color="#EE0979"/>
</linearGradient>
<linearGradient id="paint2_linear_10482_5607" x1="34.6431" y1="0.286131" x2="-9.24258" y2="33.2004" gradientUnits="userSpaceOnUse">
<stop stop-color="#FF6A00"/>
<stop offset="1" stop-color="#EE0979"/>
</linearGradient>
<linearGradient id="paint3_linear_10482_5607" x1="34.6431" y1="0.286131" x2="-9.24258" y2="33.2004" gradientUnits="userSpaceOnUse">
<stop stop-color="#FF6A00"/>
<stop offset="1" stop-color="#EE0979"/>
</linearGradient>
<linearGradient id="paint4_linear_10482_5607" x1="34.6431" y1="0.286131" x2="-9.24258" y2="33.2004" gradientUnits="userSpaceOnUse">
<stop stop-color="#FF6A00"/>
<stop offset="1" stop-color="#EE0979"/>
</linearGradient>
</defs>
</svg>
