<svg width="24" height="25" viewBox="0 0 24 25" fill="none" xmlns="http://www.w3.org/2000/svg">
<path d="M6.08577 23.942C4.65848 23.8771 3.88314 23.6395 3.36743 23.4384C2.6841 23.1723 2.19693 22.8556 1.68407 22.3435C1.17122 21.8314 0.853806 21.3442 0.589176 20.6609C0.388029 20.1451 0.150504 19.3698 0.0855946 17.9425C0.0142658 16.3997 0 15.9367 0 12.0279C0 8.11911 0.0156923 7.6569 0.0848813 6.11263C0.14979 4.68534 0.388742 3.91142 0.588463 3.39429C0.854519 2.71096 1.17193 2.22378 1.68336 1.71022C2.1955 1.19807 2.68268 0.879948 3.36672 0.615318C3.88243 0.414171 4.65777 0.176646 6.08506 0.111737C7.62861 0.0411212 8.09225 0.0268555 11.9996 0.0268555C15.9085 0.0268555 16.3707 0.0425478 17.9149 0.111737C19.3422 0.176646 20.1161 0.415597 20.6333 0.615318C21.3166 0.879948 21.8038 1.19807 22.3166 1.71022C22.8295 2.22236 23.1455 2.71024 23.4115 3.39357C23.6127 3.90928 23.8502 4.68463 23.9151 6.11192C23.9857 7.65618 24 8.11839 24 12.0272C24 15.9346 23.9857 16.3982 23.9151 17.9425C23.8502 19.3698 23.6113 20.1451 23.4115 20.6609C23.1455 21.3442 22.8288 21.8314 22.3166 22.3435C21.8045 22.8556 21.3166 23.1723 20.6333 23.4384C20.1176 23.6395 19.3422 23.8771 17.9149 23.942C16.3721 24.0126 15.9085 24.0269 11.9996 24.0269C8.09225 24.0269 7.62862 24.0133 6.08577 23.942Z" fill="#9C9C9C"/>
<path d="M9.27709 11.9419C9.27709 10.4848 10.4579 9.30331 11.915 9.30331C13.3721 9.30331 14.5535 10.4848 14.5535 11.9419C14.5535 13.3989 13.3721 14.5804 11.915 14.5804C10.4579 14.5804 9.27709 13.3989 9.27709 11.9419ZM7.85074 11.9419C7.85074 14.1865 9.67031 16.0061 11.915 16.0061C14.1597 16.0061 15.9793 14.1865 15.9793 11.9419C15.9793 9.69716 14.1597 7.8776 11.915 7.8776C9.67031 7.8776 7.85081 9.69703 7.85081 11.9419M15.1904 7.71645C15.1903 7.9043 15.246 8.08796 15.3503 8.24419C15.4546 8.40043 15.6029 8.52223 15.7764 8.59418C15.9499 8.66614 16.1409 8.68503 16.3251 8.64845C16.5094 8.61188 16.6787 8.52149 16.8116 8.38871C16.9444 8.25593 17.035 8.08673 17.0717 7.9025C17.1084 7.71827 17.0897 7.52729 17.0179 7.35371C16.946 7.18012 16.8244 7.03174 16.6682 6.92731C16.5121 6.82288 16.3285 6.7671 16.1406 6.76703H16.1402C15.8884 6.76715 15.647 6.8672 15.4689 7.04521C15.2908 7.22323 15.1906 7.46465 15.1904 7.71645ZM8.71734 18.3845C7.94566 18.3494 7.52623 18.2209 7.24749 18.1123C6.87796 17.9684 6.61429 17.7971 6.33708 17.5202C6.05986 17.2434 5.88827 16.98 5.74504 16.6104C5.63638 16.3318 5.50784 15.9123 5.47276 15.1406C5.43439 14.3063 5.42673 14.0557 5.42673 11.942C5.42673 9.8283 5.43502 9.57837 5.47276 8.74337C5.5079 7.97169 5.63739 7.55296 5.74504 7.27352C5.8889 6.90399 6.06024 6.64033 6.33708 6.36311C6.61391 6.0859 6.87732 5.9143 7.24749 5.77107C7.5261 5.66241 7.94566 5.53387 8.71734 5.49879C9.55164 5.46042 9.80227 5.45276 11.915 5.45276C14.0277 5.45276 14.2786 5.46093 15.1136 5.49892C15.8853 5.53406 16.304 5.66355 16.5835 5.77119C16.953 5.91442 17.2167 6.0864 17.4939 6.36324C17.7711 6.64007 17.942 6.90412 18.0859 7.27365C18.1946 7.55226 18.3231 7.97182 18.3582 8.7435C18.3966 9.5785 18.4042 9.82842 18.4042 11.9421C18.4042 14.0558 18.3966 14.3057 18.3582 15.1407C18.323 15.9124 18.1939 16.3318 18.0859 16.6106C17.942 16.9801 17.7707 17.2438 17.4939 17.5203C17.217 17.7969 16.953 17.9685 16.5835 18.1124C16.3048 18.221 15.8853 18.3496 15.1136 18.3847C14.2793 18.423 14.0287 18.4307 11.915 18.4307C9.80132 18.4307 9.55139 18.423 8.71734 18.3847M8.6518 4.07479C7.8092 4.11316 7.23344 4.24677 6.73061 4.44242C6.21018 4.64448 5.76903 4.91555 5.32852 5.35537C4.888 5.79519 4.61762 6.23641 4.41557 6.75747C4.21991 7.26061 4.08631 7.83606 4.04793 8.67866C4.00893 9.52259 4 9.79239 4 11.9419C4 14.0913 4.00893 14.3611 4.04793 15.2051C4.08631 16.0477 4.21991 16.6231 4.41557 17.1262C4.61762 17.6467 4.88806 18.0887 5.32852 18.5283C5.76897 18.968 6.20955 19.2387 6.73061 19.4413C7.23439 19.6369 7.8092 19.7705 8.6518 19.8089C9.49618 19.8473 9.76554 19.8569 11.915 19.8569C14.0645 19.8569 14.3343 19.8479 15.1782 19.8089C16.0209 19.7705 16.5962 19.6369 17.0994 19.4413C17.6198 19.2387 18.061 18.9682 18.5015 18.5283C18.942 18.0885 19.2118 17.6467 19.4144 17.1262C19.6101 16.6231 19.7443 16.0477 19.7821 15.2051C19.8204 14.3605 19.8294 14.0913 19.8294 11.9419C19.8294 9.79239 19.8204 9.52259 19.7821 8.67866C19.7437 7.836 19.6101 7.26029 19.4144 6.75747C19.2118 6.23704 18.9413 5.79589 18.5015 5.35537C18.0617 4.91486 17.6198 4.64448 17.1 4.44242C16.5962 4.24677 16.0208 4.11253 15.1788 4.07479C14.3348 4.03623 14.0651 4.02686 11.916 4.02686C9.76681 4.02686 9.49649 4.03578 8.65212 4.07479" fill="white"/>
</svg>
