<svg width="30" height="30" viewBox="0 0 30 30" fill="none" xmlns="http://www.w3.org/2000/svg">
<path d="M0.714355 15.0001H29.2858M0.714355 15.0001C0.714355 22.8899 7.11022 29.2858 15 29.2858M0.714355 15.0001C0.714355 7.11029 7.11022 0.714355 15 0.714355M29.2858 15.0001C29.2858 22.8899 22.8898 29.2858 15 29.2858M29.2858 15.0001C29.2858 7.11029 22.8898 0.714355 15 0.714355M15 29.2858C18.8383 29.2858 21.9498 22.8899 21.9498 15.0001C21.9498 7.11029 18.8383 0.714355 15 0.714355M15 29.2858C11.1617 29.2858 8.0502 22.8899 8.0502 15.0001C8.0502 7.11029 11.1617 0.714355 15 0.714355M15 29.2858V0.714355M2.72584 7.85721H27.2432M2.72584 22.1429H27.2432" stroke="#3B3A3C" stroke-miterlimit="10" stroke-linecap="round"/>
</svg>
