<svg width="24" height="25" viewBox="0 0 24 25" fill="none" xmlns="http://www.w3.org/2000/svg">
<rect y="0.0268555" width="24" height="24" rx="12" fill="#9C9C9C"/>
<g clip-path="url(#clip0_6644_1887)">
<path d="M5 6.89439C5 6.44393 5.15766 6.0723 5.47297 5.77952C5.78828 5.48672 6.1982 5.34033 6.7027 5.34033C7.1982 5.34033 7.59909 5.48447 7.90541 5.77276C8.22072 6.07006 8.37838 6.45744 8.37838 6.93493C8.37838 7.36736 8.22523 7.72771 7.91892 8.01601C7.60361 8.3133 7.18919 8.46195 6.67568 8.46195H6.66216C6.16666 8.46195 5.76577 8.3133 5.45946 8.01601C5.15315 7.71871 5 7.34483 5 6.89439ZM5.17568 18.7187V9.69168H8.17568V18.7187H5.17568ZM9.83784 18.7187H12.8378V13.6782C12.8378 13.3628 12.8739 13.1196 12.9459 12.9484C13.0721 12.6421 13.2635 12.3831 13.5203 12.1714C13.777 11.9597 14.0991 11.8538 14.4865 11.8538C15.4955 11.8538 16 12.534 16 13.8944V18.7187H19V13.543C19 12.2097 18.6847 11.1984 18.0541 10.5093C17.4234 9.82006 16.5901 9.47547 15.5541 9.47547C14.3919 9.47547 13.4865 9.97547 12.8378 10.9755V11.0025H12.8243L12.8378 10.9755V9.69168H9.83784C9.85585 9.97997 9.86486 10.8764 9.86486 12.3809C9.86486 13.8854 9.85585 15.998 9.83784 18.7187Z" fill="white"/>
</g>
<defs>
<clipPath id="clip0_6644_1887">
<rect x="5" y="5.02686" width="14" height="14" fill="white"/>
</clipPath>
</defs>
</svg>
