<svg width="148" height="36" viewBox="0 0 148 36" fill="none" xmlns="http://www.w3.org/2000/svg">
<path d="M54.7197 17.9762C54.7197 15.06 55.683 12.6631 57.6097 10.7855C59.5363 8.90797 61.8241 7.94922 64.4732 7.94922C67.4033 7.94922 69.8116 8.90797 71.7382 10.7855C73.6648 12.703 74.6281 15.0999 74.6281 18.0161C74.6281 20.8924 73.6648 23.2893 71.7783 25.2068C69.8918 27.1243 67.4836 28.0831 64.6338 28.0831C61.7439 28.0831 59.3757 27.1243 57.5294 25.2468C55.6429 23.2893 54.7197 20.8924 54.7197 17.9762ZM64.6739 11.8641C63.0283 11.8242 61.7037 12.3835 60.6601 13.5819C59.6567 14.7404 59.1349 16.2584 59.1349 18.096C59.1349 19.8538 59.6567 21.2919 60.7003 22.4504C61.7439 23.6089 63.0283 24.1682 64.5936 24.1682C66.2393 24.1682 67.604 23.6089 68.6074 22.4504C69.6109 21.3318 70.1327 19.8138 70.1327 17.9762C70.1327 16.1386 69.651 14.6605 68.6476 13.5819C67.6441 12.4634 66.3196 11.9041 64.6739 11.8641Z" fill="#3B3A3C"/>
<path d="M89.0775 8.14941H93.2519V27.8039H89.1177L80.0866 15.0604V27.8039H75.832V8.14941H80.0465L89.0775 20.773V8.14941Z" fill="#3B3A3C"/>
<path d="M95.2988 8.14941H106.417V12.0244H99.5534V15.9793H106.417V19.8143H99.5534V23.889H106.417V27.764H95.2988V8.14941Z" fill="#3B3A3C"/>
<path d="M111.956 8.15039H116.211V27.8049H111.956V8.15039Z" fill="#CC1F26"/>
<path d="M118.498 8.15039H124.238C126.646 8.15039 128.292 8.62977 129.175 9.62847C130.058 10.6272 130.499 11.7857 130.499 13.1439C130.499 13.9828 130.339 14.7019 130.018 15.3011C129.697 15.9003 129.175 16.4596 128.452 17.0588C129.817 17.5382 130.78 18.2173 131.342 19.1361C131.904 20.0549 132.185 21.0137 132.185 22.0523C132.185 23.85 131.583 25.2881 130.339 26.2869C129.095 27.2856 127.328 27.8049 125.081 27.8049H118.458V8.15039H118.498ZM122.753 11.4661V15.7805H123.716C124.439 15.7805 125.041 15.5408 125.522 15.1014C126.004 14.6619 126.245 14.0627 126.245 13.4235C126.245 12.9042 126.004 12.4248 125.522 12.0653C125.041 11.7058 124.439 11.506 123.716 11.506H122.753V11.4661ZM122.753 19.0962V24.5291H124.278C126.606 24.5291 127.77 23.6902 127.77 21.9725C127.77 21.0536 127.489 20.3346 126.927 19.8552C126.365 19.3758 125.562 19.0962 124.479 19.0962H122.753Z" fill="#CC1F26"/>
<path d="M148 9.22845V14.0222C145.872 12.7439 143.986 12.1047 142.38 12.1047C140.775 12.1047 139.49 12.664 138.527 13.7426C137.564 14.8611 137.082 16.2993 137.082 18.1768C137.082 19.9345 137.604 21.3327 138.607 22.4113C139.611 23.45 140.976 24.0093 142.661 24.0093C144.146 24.0093 145.912 23.41 148 22.2116V26.9654C145.672 27.7244 143.745 28.1239 142.22 28.1239C139.571 28.1239 137.323 27.1652 135.437 25.2077C133.59 23.2502 132.667 20.8933 132.667 18.0969C132.667 15.2606 133.63 12.8238 135.517 10.8663C137.403 8.90886 139.691 7.91016 142.42 7.91016C144.106 7.91016 145.993 8.34959 148 9.22845Z" fill="#CC1F26"/>
<path d="M48.9396 13.5427C48.8995 13.3829 48.8593 13.1832 48.8192 13.0234C48.7791 19.6148 41.7951 26.1264 32.1218 28.1637C21.4853 30.4408 11.5713 26.446 10.046 19.2154C8.4405 12.0247 15.8259 4.35464 26.5025 2.0776C27.787 1.79796 29.0714 1.63817 30.3156 1.51833C27.3856 1.35853 24.2548 1.59822 21.0839 2.27734C7.63774 5.15361 -1.67424 14.8211 0.252374 23.9292C2.21913 32.9975 14.6619 38.0709 28.1081 35.1946C41.5543 32.3184 50.8662 22.6509 48.9396 13.5427Z" fill="#CC1F26"/>
<path d="M44.4439 15.4599L35.2524 16.2589L44.3637 14.2215C44.2031 12.6636 43.9221 11.1455 43.4405 9.58756L34.3292 12.6236L43.0391 8.38911C42.9187 8.02958 42.7581 7.6301 42.5976 7.27056C42.1561 6.19196 41.5941 5.19326 41.0322 4.27445L32.7638 9.26797L40.3499 3.27575C39.4668 2.03736 38.4634 0.918808 37.4198 0L27.9473 7.51025C28.5493 8.22932 29.0711 9.10818 29.4725 10.1069C29.5929 10.4265 29.7133 10.7461 29.7936 11.0656C29.8337 11.2254 29.8739 11.3453 29.914 11.5051C30.1147 12.304 30.195 13.1429 30.2351 13.9419C30.2351 14.1416 30.2351 14.3813 30.2351 14.5811C30.195 15.3001 30.0746 16.0192 29.8739 16.6983C29.7936 16.978 29.7133 17.2576 29.5929 17.4973C29.3922 17.9767 29.1915 18.456 28.9106 18.8555H44.3235C44.4841 17.7769 44.4841 16.6184 44.4439 15.4599Z" fill="#CC1F26"/>
<path d="M38.9851 20.533L39.0253 20.4531H22.4082L24.2545 23.7688H37.1789L38.9851 20.533Z" fill="#CC1F26"/>
</svg>
