
<svg version="1.1" id="Layer_1" xmlns="http://www.w3.org/2000/svg" xmlns:xlink="http://www.w3.org/1999/xlink" x="0px" y="0px"
	 width="154.875px" height="36px" viewBox="0 0 154.875 36" enable-background="new 0 0 154.875 36" xml:space="preserve">
<g>
	<g>
		<g>
			<path fill="#3B3A3C" d="M53.953,17.979c0-2.734,0.902-4.989,2.711-6.768c1.807-1.781,3.952-2.668,6.43-2.668
				c2.74,0,5.008,0.895,6.8,2.683c1.792,1.786,2.69,4.049,2.69,6.781c0,2.711-0.887,4.966-2.661,6.758
				c-1.774,1.797-4.009,2.69-6.704,2.69c-2.696,0-4.912-0.894-6.654-2.677C54.823,22.994,53.953,20.729,53.953,17.979z
				 M63.277,12.235c-1.551-0.031-2.798,0.504-3.747,1.605c-0.949,1.098-1.422,2.516-1.422,4.251c0,1.642,0.482,3.003,1.449,4.085
				c0.966,1.079,2.188,1.616,3.662,1.616c1.549,0,2.801-0.53,3.753-1.597c0.954-1.065,1.43-2.47,1.43-4.217
				c0-1.721-0.467-3.101-1.401-4.139C66.067,12.797,64.824,12.26,63.277,12.235z"/>
		</g>
		<g>
			<path fill="#3B3A3C" d="M86.116,8.741h3.9V27.23h-3.883l-8.453-11.97v11.97h-3.985V8.741h3.941l8.479,11.885V8.741z"/>
		</g>
		<g>
			<path fill="#3B3A3C" d="M91.941,8.741h10.407v3.661h-6.42v3.73h6.42v3.607h-6.42v3.828h6.42v3.663H91.941V8.741z"/>
		</g>
	</g>
	<g>
		<g>
			<path fill="#CA1F26" d="M107.532,8.756h3.988v18.489h-3.988V8.756z"/>
		</g>
		<g>
			<path fill="#CA1F26" d="M113.638,8.756h5.388c2.247,0,3.785,0.468,4.611,1.407c0.825,0.938,1.235,2.036,1.235,3.294
				c0,0.797-0.148,1.468-0.449,2.018c-0.3,0.549-0.783,1.106-1.448,1.668c1.274,0.439,2.182,1.092,2.711,1.951
				c0.528,0.861,0.794,1.776,0.794,2.755c0,1.702-0.58,3.028-1.745,3.974c-1.162,0.949-2.801,1.424-4.908,1.424h-6.188V8.756z
				 M117.621,11.855v4.054h0.911c0.674,0,1.24-0.215,1.698-0.642c0.457-0.43,0.686-0.958,0.686-1.592
				c0-0.506-0.222-0.94-0.673-1.292c-0.448-0.354-1.009-0.527-1.681-0.527H117.621z M117.621,19.05v5.098h1.428
				c2.186,0,3.276-0.801,3.276-2.403c0-0.864-0.265-1.531-0.798-1.995c-0.532-0.465-1.293-0.699-2.282-0.699H117.621z"/>
		</g>
		<g>
			<path fill="#CA1F26" d="M141.25,9.742v4.504c-1.998-1.202-3.749-1.802-5.254-1.802c-1.499,0-2.704,0.517-3.604,1.551
				c-0.9,1.033-1.351,2.422-1.351,4.168c0,1.65,0.471,2.972,1.421,3.963c0.948,0.991,2.215,1.487,3.804,1.487
				c1.389,0,3.051-0.562,4.983-1.676v4.477c-2.167,0.724-3.974,1.084-5.423,1.084c-2.487,0-4.598-0.913-6.335-2.739
				c-1.738-1.826-2.605-4.052-2.605-6.68c0-2.677,0.883-4.941,2.654-6.796c1.77-1.854,3.922-2.782,6.455-2.782
				C137.632,8.501,139.383,8.915,141.25,9.742z"/>
		</g>
	</g>
	<g>
		<path fill="#CA1F26" d="M48.527,13.826c-0.037-0.168-0.083-0.333-0.127-0.497c-0.046,6.182-6.57,12.307-15.617,14.243
			c-9.971,2.135-19.229-1.625-20.68-8.398c-1.45-6.771,5.458-13.995,15.427-16.13c1.201-0.256,2.391-0.427,3.559-0.519
			c-2.751-0.146-5.672,0.072-8.642,0.708C9.874,5.925,1.163,15.033,2.992,23.575c1.828,8.54,13.505,13.282,26.079,10.592
			C41.644,31.474,50.355,22.364,48.527,13.826z"/>
		<polygon fill="#CA1F26" points="20.743,18.118 20.743,18.118 20.744,18.118 		"/>
		<g>
			<path fill="#CA1F26" d="M44.343,15.62l-8.607,0.75l8.524-1.934c-0.14-1.45-0.425-2.908-0.863-4.341l-8.543,2.845l8.164-3.974
				c-0.128-0.35-0.262-0.697-0.409-1.043c-0.431-1.012-0.926-1.956-1.473-2.832l-7.724,4.704l7.103-5.641
				c-0.831-1.173-1.76-2.203-2.761-3.075l-8.859,7.066c0.574,0.681,1.066,1.493,1.439,2.425c0.12,0.3,0.221,0.604,0.31,0.909
				c0.041,0.141,0.078,0.282,0.113,0.423c0.188,0.769,0.281,1.545,0.285,2.307c0.001,0.198-0.003,0.397-0.014,0.593
				c-0.039,0.693-0.151,1.367-0.333,2.005c-0.073,0.26-0.157,0.515-0.253,0.762c-0.177,0.453-0.39,0.883-0.64,1.28h14.441
				C44.355,17.792,44.389,16.711,44.343,15.62z"/>
			<g>
				<polygon fill="#CA1F26" points="39.235,20.376 39.259,20.33 23.709,20.33 25.422,23.441 37.547,23.441 				"/>
			</g>
		</g>
	</g>
</g>
<g>
	<path d="M145.58,7.201c0-1.179,0.389-2.172,1.166-2.981c0.774-0.809,1.713-1.213,2.82-1.213c1.105,0,2.046,0.404,2.823,1.213
		c0.776,0.809,1.164,1.802,1.164,2.981c0,1.183-0.389,2.181-1.167,2.993c-0.779,0.813-1.719,1.219-2.82,1.219
		c-1.107,0-2.046-0.406-2.82-1.219C145.969,9.381,145.58,8.384,145.58,7.201z M146.266,7.201c0,0.99,0.323,1.821,0.963,2.496
		c0.642,0.675,1.421,1.013,2.338,1.013c0.915,0,1.691-0.338,2.334-1.013c0.642-0.675,0.964-1.506,0.964-2.496
		c0-0.984-0.322-1.812-0.964-2.484c-0.643-0.672-1.419-1.008-2.334-1.008c-0.92,0-1.701,0.336-2.341,1.008
		C146.587,5.389,146.266,6.216,146.266,7.201z M148.76,7.628V9.52h-0.848V4.748h1.577c0.564,0,1.011,0.126,1.337,0.381
		c0.326,0.255,0.487,0.618,0.487,1.09c0,0.218-0.053,0.407-0.161,0.571c-0.109,0.162-0.27,0.302-0.479,0.417
		c0.218,0.113,0.377,0.271,0.477,0.476c0.099,0.203,0.147,0.443,0.147,0.721v0.313c0,0.155,0.008,0.292,0.02,0.414
		c0.014,0.122,0.038,0.221,0.077,0.3v0.09h-0.871c-0.033-0.079-0.055-0.193-0.062-0.346c-0.009-0.15-0.012-0.305-0.012-0.463V8.408
		c0-0.265-0.063-0.463-0.187-0.59c-0.127-0.127-0.332-0.189-0.618-0.189H148.76z M148.76,6.876h0.758
		c0.266,0,0.49-0.056,0.676-0.169c0.186-0.112,0.279-0.273,0.279-0.483c0-0.27-0.073-0.457-0.221-0.567
		c-0.146-0.108-0.398-0.163-0.763-0.163h-0.729V6.876z"/>
</g>
</svg>
