<svg width="148" height="36" viewBox="0 0 148 36" fill="none" xmlns="http://www.w3.org/2000/svg">
<path d="M54.7192 17.9767C54.7192 15.0605 55.6825 12.6636 57.6092 10.786C59.5358 8.90846 61.8236 7.94971 64.4727 7.94971C67.4028 7.94971 69.8111 8.90846 71.7377 10.786C73.6643 12.7035 74.6276 15.1004 74.6276 18.0166C74.6276 20.8929 73.6643 23.2898 71.7778 25.2073C69.8914 27.1248 67.4831 28.0836 64.6333 28.0836C61.7434 28.0836 59.3752 27.1248 57.5289 25.2473C55.6424 23.2898 54.7192 20.8929 54.7192 17.9767ZM64.6734 11.8646C63.0278 11.8247 61.7032 12.384 60.6596 13.5824C59.6562 14.7409 59.1344 16.2589 59.1344 18.0965C59.1344 19.8543 59.6562 21.2924 60.6998 22.4509C61.7434 23.6094 63.0278 24.1687 64.5932 24.1687C66.2388 24.1687 67.6035 23.6094 68.6069 22.4509C69.6104 21.3323 70.1322 19.8143 70.1322 17.9767C70.1322 16.1391 69.6505 14.661 68.6471 13.5824C67.6436 12.4638 66.3191 11.9046 64.6734 11.8646Z" fill="white"/>
<path d="M89.0775 8.14941H93.2519V27.8039H89.1177L80.0866 15.0604V27.8039H75.832V8.14941H80.0465L89.0775 20.773V8.14941Z" fill="white"/>
<path d="M95.2988 8.14941H106.417V12.0244H99.5534V15.9793H106.417V19.8143H99.5534V23.889H106.417V27.764H95.2988V8.14941Z" fill="white"/>
<path d="M111.956 8.14941H116.211V27.8039H111.956V8.14941Z" fill="#CC1F26"/>
<path d="M118.499 8.14941H124.238C126.647 8.14941 128.292 8.62879 129.175 9.6275C130.058 10.6262 130.5 11.7847 130.5 13.1429C130.5 13.9818 130.339 14.7009 130.018 15.3001C129.697 15.8994 129.175 16.4586 128.453 17.0579C129.818 17.5372 130.781 18.2163 131.343 19.1352C131.905 20.054 132.186 21.0127 132.186 22.0514C132.186 23.849 131.584 25.2872 130.339 26.2859C129.095 27.2846 127.329 27.8039 125.081 27.8039H118.458V8.14941H118.499ZM122.753 11.4651V15.7795H123.717C124.439 15.7795 125.041 15.5398 125.523 15.1004C126.004 14.661 126.245 14.0617 126.245 13.4226C126.245 12.9032 126.004 12.4239 125.523 12.0643C125.041 11.7048 124.439 11.5051 123.717 11.5051H122.753V11.4651ZM122.753 19.0952V24.5282H124.278C126.606 24.5282 127.77 23.6892 127.77 21.9715C127.77 21.0527 127.49 20.3336 126.928 19.8542C126.366 19.3748 125.563 19.0952 124.479 19.0952H122.753Z" fill="#CC1F26"/>
<path d="M148 9.22796V14.0217C145.872 12.7434 143.986 12.1042 142.38 12.1042C140.775 12.1042 139.49 12.6635 138.527 13.7421C137.564 14.8606 137.082 16.2988 137.082 18.1763C137.082 19.9341 137.604 21.3322 138.607 22.4108C139.611 23.4495 140.976 24.0088 142.661 24.0088C144.146 24.0088 145.912 23.4095 148 22.2111V26.9649C145.672 27.7239 143.745 28.1234 142.22 28.1234C139.571 28.1234 137.323 27.1647 135.437 25.2072C133.59 23.2498 132.667 20.8928 132.667 18.0964C132.667 15.2601 133.63 12.8233 135.517 10.8658C137.403 8.90837 139.691 7.90967 142.42 7.90967C144.106 7.90967 145.993 8.3491 148 9.22796Z" fill="#CC1F26"/>
<path d="M48.9396 13.5425C48.8995 13.3827 48.8593 13.1829 48.8192 13.0231C48.7791 19.6146 41.7951 26.1261 32.1218 28.1635C21.4853 30.4405 11.5713 26.4457 10.046 19.2151C8.4405 12.0244 15.8259 4.3544 26.5025 2.07736C27.787 1.79772 29.0714 1.63793 30.3156 1.51808C27.3856 1.35829 24.2548 1.59798 21.0839 2.2771C7.63774 5.15336 -1.67424 14.8208 0.252374 23.929C2.21913 32.9972 14.6619 38.0706 28.1081 35.1944C41.5543 32.3181 50.8662 22.6507 48.9396 13.5425Z" fill="#CC1F26"/>
<path d="M44.4444 15.4599L35.2529 16.2589L44.3641 14.2215C44.2036 12.6636 43.9226 11.1455 43.441 9.58756L34.3297 12.6236L43.0396 8.38911C42.9192 8.02958 42.7586 7.6301 42.5981 7.27056C42.1566 6.19196 41.5946 5.19326 41.0327 4.27445L32.7643 9.26797L40.3504 3.27575C39.4673 2.03736 38.4639 0.918808 37.4203 0L27.9478 7.51025C28.5498 8.22932 29.0716 9.10818 29.473 10.1069C29.5934 10.4265 29.7138 10.7461 29.7941 11.0656C29.8342 11.2254 29.8744 11.3453 29.9145 11.5051C30.1152 12.304 30.1955 13.1429 30.2356 13.9419C30.2356 14.1416 30.2356 14.3813 30.2356 14.5811C30.1955 15.3001 30.0751 16.0192 29.8744 16.6983C29.7941 16.978 29.7138 17.2576 29.5934 17.4973C29.3927 17.9767 29.192 18.456 28.9111 18.8555H44.324C44.4846 17.7769 44.4846 16.6184 44.4444 15.4599Z" fill="#CC1F26"/>
<path d="M38.9856 20.5333L39.0258 20.4534H22.4087L24.255 23.7691H37.1794L38.9856 20.5333Z" fill="#CC1F26"/>
</svg>
