<svg width="181" height="45" viewBox="0 0 181 45" fill="none" xmlns="http://www.w3.org/2000/svg">
<path d="M66.9204 21.9849C66.9204 18.4185 68.0985 15.4871 70.4547 13.1909C72.8109 10.8947 75.6089 9.72217 78.8487 9.72217C82.4321 9.72217 85.3773 10.8947 87.7335 13.1909C90.0897 15.536 91.2678 18.4673 91.2678 22.0338C91.2678 25.5514 90.0897 28.4827 87.7826 30.8278C85.4755 33.1728 82.5303 34.3454 79.045 34.3454C75.5107 34.3454 72.6146 33.1728 70.3565 30.8766C68.0494 28.4827 66.9204 25.5514 66.9204 21.9849ZM79.0941 14.51C77.0815 14.4612 75.4616 15.1451 74.1854 16.6108C72.9582 18.0276 72.32 19.8841 72.32 22.1315C72.32 24.2811 72.9582 26.0399 74.2345 27.4567C75.5107 28.8735 77.0815 29.5575 78.9959 29.5575C81.0085 29.5575 82.6775 28.8735 83.9047 27.4567C85.1319 26.0888 85.77 24.2323 85.77 21.9849C85.77 19.7376 85.181 17.9299 83.9538 16.6108C82.7266 15.2428 81.1067 14.5589 79.0941 14.51Z" fill="#3B3A3C"/>
<path d="M108.94 9.96631H114.045V34.0032H108.989L97.944 18.4183V34.0032H92.7407V9.96631H97.8949L108.94 25.4047V9.96631Z" fill="#3B3A3C"/>
<path d="M116.548 9.96631H130.145V14.7053H121.751V19.542H130.145V24.2321H121.751V29.2154H130.145V33.9544H116.548V9.96631V9.96631Z" fill="#3B3A3C"/>
<path d="M136.919 9.9668H142.123V34.0037H136.919V9.9668Z" fill="#C91F26"/>
<path d="M144.921 9.9668H151.94C154.885 9.9668 156.898 10.5531 157.978 11.7745C159.058 12.9958 159.598 14.4127 159.598 16.0737C159.598 17.0997 159.401 17.9791 159.009 18.7119C158.616 19.4448 157.978 20.1287 157.094 20.8616C158.763 21.4478 159.941 22.2784 160.629 23.4021C161.316 24.5257 161.66 25.6983 161.66 26.9685C161.66 29.167 160.923 30.9258 159.402 32.1472C157.88 33.3686 155.72 34.0037 152.971 34.0037H144.872V9.9668H144.921ZM150.124 14.0218V19.2982H151.302C152.186 19.2982 152.922 19.0051 153.511 18.4677C154.1 17.9302 154.395 17.1974 154.395 16.4157C154.395 15.7806 154.1 15.1943 153.511 14.7546C152.922 14.3149 152.186 14.0707 151.302 14.0707H150.124V14.0218ZM150.124 23.3532V29.9976H151.989C154.836 29.9976 156.26 28.9716 156.26 26.8708C156.26 25.7471 155.916 24.8677 155.229 24.2815C154.542 23.6952 153.56 23.3532 152.235 23.3532H150.124V23.3532Z" fill="#C91F26"/>
<path d="M181 11.2856V17.1482C178.398 15.5849 176.091 14.8032 174.128 14.8032C172.164 14.8032 170.593 15.4871 169.415 16.8062C168.237 18.1742 167.648 19.933 167.648 22.2292C167.648 24.3789 168.286 26.0888 169.513 27.4079C170.741 28.6781 172.41 29.3621 174.471 29.3621C176.288 29.3621 178.447 28.6293 181 27.1636V32.9774C178.153 33.9057 175.797 34.3942 173.931 34.3942C170.692 34.3942 167.943 33.2217 165.636 30.8278C163.378 28.4339 162.249 25.5514 162.249 22.1315C162.249 18.6628 163.427 15.6826 165.734 13.2886C168.041 10.8947 170.839 9.67334 174.177 9.67334C176.238 9.67334 178.546 10.2108 181 11.2856Z" fill="#C91F26"/>
<path d="M59.8518 16.5621C59.8028 16.3667 59.7537 16.1224 59.7046 15.927C59.6555 23.9881 51.1143 31.9516 39.2842 34.4432C26.276 37.228 14.1513 32.3424 12.286 23.4996C10.3225 14.7056 19.3546 5.32533 32.4119 2.54056C33.9827 2.19857 35.5535 2.00315 37.0752 1.85658C33.4918 1.66116 29.663 1.95429 25.7851 2.78484C9.34076 6.30244 -2.04756 18.1255 0.308647 29.2645C2.71394 40.3548 17.9311 46.5594 34.3754 43.0418C50.8197 39.5242 62.2081 27.7012 59.8518 16.5621Z" fill="#C91F26"/>
<path d="M54.3547 18.9071L43.1136 19.8842L54.2565 17.3926C54.0601 15.4872 53.7165 13.6307 53.1275 11.7253L41.9846 15.4384L52.6366 10.2597C52.4893 9.81996 52.293 9.33141 52.0966 8.89171C51.5567 7.57261 50.8695 6.35122 50.1822 5.22754L40.0702 11.3345L49.3477 4.00615C48.2678 2.49163 47.0406 1.12368 45.7643 0L34.1797 9.18484C34.916 10.0642 35.5541 11.1391 36.045 12.3605C36.1923 12.7513 36.3395 13.1421 36.4377 13.533C36.4868 13.7284 36.5359 13.875 36.585 14.0704C36.8304 15.0475 36.9286 16.0735 36.9777 17.0506C36.9777 17.2949 36.9777 17.588 36.9777 17.8323C36.9286 18.7117 36.7813 19.5911 36.5359 20.4216C36.4377 20.7636 36.3395 21.1056 36.1923 21.3987C35.9468 21.985 35.7014 22.5713 35.3578 23.0598H54.2074C54.4038 21.7407 54.4038 20.3239 54.3547 18.9071Z" fill="#C91F26"/>
<path d="M47.6784 25.1119L47.7275 25.0142H27.4053L29.6633 29.0692H45.4695L47.6784 25.1119Z" fill="#C91F26"/>
</svg>
