<svg width="12" height="14" viewBox="0 0 12 14" fill="none" xmlns="http://www.w3.org/2000/svg">
<path d="M1.23243 5.53076L1.23243 5.53086C1.2309 6.62033 1.5707 7.67843 2.19709 8.54288L2.1971 8.5429L1.23243 5.53076ZM1.23243 5.53076C1.23393 4.19618 1.74081 2.92003 2.63677 1.9814C3.53205 1.04349 4.74204 0.519262 6.00028 0.517578C7.25852 0.519262 8.4685 1.04349 9.36379 1.9814C10.2597 2.92003 10.7666 4.19618 10.7681 5.53076V5.53085C10.7696 6.61982 10.43 7.67743 9.80388 8.54149L9.76847 8.59036L9.76824 8.59109M1.23243 5.53076L9.76824 8.59109M9.76824 8.59109L9.73173 8.64098L9.6782 8.71373L9.65854 8.74017C9.65487 8.74507 9.65283 8.74774 9.65202 8.74881L6.00027 13.2608L2.34814 8.74845L2.34814 8.74845L2.34654 8.74649C2.34703 8.7471 2.34651 8.7464 2.34482 8.74417C2.3417 8.74005 2.33461 8.73069 2.32264 8.71455C2.30702 8.6935 2.28793 8.6675 2.26915 8.64183L2.21904 8.5731L2.20302 8.55105L2.1986 8.54497L2.19746 8.54339L2.19717 8.543L2.19713 8.54295L9.76824 8.59109ZM8.24541 5.53078V5.53033C8.24541 5.07245 8.11588 4.62353 7.8714 4.24022C7.62681 3.85674 7.27738 3.55513 6.86522 3.37628C6.45284 3.19733 5.99797 3.15019 5.55893 3.24168C5.12004 3.33314 4.7194 3.5584 4.40664 3.88605C4.09406 4.21352 3.88301 4.62868 3.79767 5.07816C3.71233 5.52759 3.75599 5.99361 3.92377 6.41796C4.0916 6.84243 4.37691 7.20802 4.74624 7.46655C5.11581 7.72524 5.55224 7.86452 6.00028 7.86452L6.00077 7.86452C6.60163 7.86373 7.17393 7.61317 7.59323 7.1739C8.01198 6.73521 8.24468 6.14401 8.24541 5.53078ZM6.00013 7.11452C5.70846 7.11449 5.42181 7.02395 5.17634 6.85212C4.93059 6.6801 4.7365 6.43372 4.62124 6.1422C4.50593 5.85056 4.47552 5.52873 4.5345 5.21807C4.59348 4.90747 4.73866 4.62443 4.94916 4.40391C5.15948 4.18357 5.42529 4.03564 5.71194 3.97591C5.99844 3.91621 6.29561 3.94667 6.56667 4.06429C6.83795 4.18201 7.07267 4.38263 7.23907 4.64352C7.40556 4.90456 7.49539 5.21318 7.49541 5.53026C7.49481 5.95571 7.33306 6.36026 7.05072 6.65604C6.76894 6.95124 6.39075 7.11391 6.00013 7.11452Z" stroke="#3B3A3C" stroke-width="0.75"/>
</svg>
