<svg width="34" height="36" viewBox="0 0 34 36" fill="none" xmlns="http://www.w3.org/2000/svg">
<path d="M11.533 22.2631C8.32715 24.5907 5.57927 24.0456 3.28937 20.632C4.8923 20.407 6.03724 19.7883 5.63651 12.9309C5.36789 8.35354 7.3143 5.14762 11.4758 3.31321C13.1359 0.782233 18.4599 -0.00517855 22.1238 1.96336C25.7876 3.93189 29.108 7.58775 28.9362 13.4934C28.7645 19.3946 29.7949 19.9008 30.7681 19.9008C28.628 23.6129 26.0342 24.5691 22.9825 22.7693M12.0486 23.6131C12.0486 27.8877 5.40795 27.9439 3.46154 29.7437C2.16686 30.9465 1.44026 32.7463 1.28613 35.1431L32.7147 35.1431C32.5606 32.7463 31.834 30.9465 30.5393 29.7437C28.5929 27.9439 21.9522 27.8877 21.9522 23.6132M22.2647 26.3687L16.998 30.587M16.998 30.587L11.7312 26.3687M16.998 30.587L16.9986 35.143M11.4758 3.42568C11.5507 8.03768 10.714 11.7281 8.95696 14.5057C7.81201 14.562 6.7243 18.6072 9.81566 19.0571C11.5727 23.522 13.9551 25.7502 16.9716 25.7502C21.4941 25.7502 24.013 20.8007 24.3565 19.2821C25.3297 19.4509 28.7646 16.6949 25.845 15.2931C22.9253 13.887 14.1092 10.9624 11.4758 3.42568Z" stroke="#050505" stroke-linecap="round" stroke-linejoin="round"/>
</svg>
