<svg width="24" height="25" viewBox="0 0 24 25" fill="none" xmlns="http://www.w3.org/2000/svg">
<rect y="0.0268555" width="24" height="24" rx="12" fill="#9C9C9C"/>
<path d="M14.7157 5.02686H12.1085V15.108C12.1085 16.3092 11.1058 17.2958 9.85787 17.2958C8.60997 17.2958 7.6072 16.3092 7.6072 15.108C7.6072 13.9283 8.58769 12.9631 9.79103 12.9202V10.3892C7.13924 10.4321 5 12.5127 5 15.108C5 17.7248 7.18381 19.8269 9.88016 19.8269C12.5765 19.8269 14.7603 17.7034 14.7603 15.108V9.93873C15.7408 10.6251 16.9441 11.0327 18.2143 11.0541V8.52309C16.2533 8.45874 14.7157 6.91439 14.7157 5.02686Z" fill="white"/>
</svg>
