<svg width="13" height="14" viewBox="0 0 13 14" fill="none" xmlns="http://www.w3.org/2000/svg">
<path d="M6.80663 2.13694V1.30153H7.23928C7.41536 1.30153 7.55622 1.16632 7.55622 0.997307V0.446804C7.55622 0.277789 7.41536 0.142578 7.23928 0.142578H5.08611C4.91003 0.142578 4.76917 0.277789 4.76917 0.446804V0.992478C4.76917 1.16149 4.91003 1.2967 5.08611 1.2967H5.52882V2.12246C2.42986 2.4122 0 4.92809 0 7.98C0 11.2154 2.7468 13.8569 6.12245 13.8569C9.4981 13.8569 12.2449 11.2154 12.2449 7.98C12.2399 4.96189 9.86534 2.46531 6.80663 2.13694ZM6.12245 13.3643C3.03356 13.3643 0.513139 10.945 0.513139 7.98C0.513139 5.00535 3.03356 2.58604 6.12245 2.58604C9.2214 2.58604 11.7318 5.00535 11.7318 7.98C11.7318 10.945 9.21637 13.3643 6.12245 13.3643Z" fill="#3B3A3C"/>
<path d="M9.20633 7.60806H6.70604C6.64567 7.52114 6.57021 7.45353 6.47462 7.40524V4.3485C6.47462 4.16017 6.31867 4.01047 6.12247 4.01047C5.92627 4.01047 5.77031 4.16017 5.77031 4.3485V7.40524C5.56405 7.51631 5.42822 7.73361 5.42822 7.97989C5.42822 8.34689 5.74013 8.64629 6.12247 8.64629C6.39413 8.64629 6.62555 8.50142 6.74125 8.28895H9.20633C9.3975 8.28895 9.55849 8.13925 9.55849 7.95092C9.55849 7.75776 9.39247 7.60806 9.20633 7.60806ZM6.12247 8.31792C5.92627 8.31792 5.77031 8.16339 5.77031 7.97989C5.77031 7.79156 5.92627 7.6322 6.12247 7.6322C6.31867 7.6322 6.48468 7.78673 6.48468 7.97989C6.47965 8.16339 6.31867 8.31792 6.12247 8.31792Z" fill="#3B3A3C"/>
</svg>
