<svg width="24" height="25" viewBox="0 0 24 25" fill="none" xmlns="http://www.w3.org/2000/svg">
<rect y="0.0268555" width="24" height="24" rx="12" fill="#9C9C9C"/>
<path d="M9.80384 18.357C15.1258 18.357 18.0358 13.947 18.0358 10.125C18.0358 9.99897 18.0358 9.87297 18.0298 9.75297C18.5938 9.34497 19.0858 8.83497 19.4758 8.25297C18.9598 8.48097 18.4018 8.63697 17.8138 8.70897C18.4138 8.34897 18.8698 7.78497 19.0858 7.10697C18.5278 7.43697 17.9098 7.67697 17.2498 7.80897C16.7218 7.24497 15.9718 6.89697 15.1378 6.89697C13.5418 6.89697 12.2458 8.19297 12.2458 9.78897C12.2458 10.017 12.2698 10.239 12.3238 10.449C9.91784 10.329 7.78784 9.17697 6.35984 7.42497C6.11384 7.85097 5.96984 8.34897 5.96984 8.87697C5.96984 9.87897 6.47984 10.767 7.25984 11.283C6.78584 11.271 6.34184 11.139 5.95184 10.923C5.95184 10.935 5.95184 10.947 5.95184 10.959C5.95184 12.363 6.94784 13.527 8.27384 13.797C8.03384 13.863 7.77584 13.899 7.51184 13.899C7.32584 13.899 7.14584 13.881 6.96584 13.845C7.33184 14.997 8.39984 15.831 9.66584 15.855C8.67584 16.629 7.42784 17.091 6.07184 17.091C5.83784 17.091 5.60984 17.079 5.38184 17.049C6.64784 17.877 8.17184 18.357 9.80384 18.357Z" fill="white"/>
</svg>
