<svg width="30" height="30" viewBox="0 0 30 30" fill="none" xmlns="http://www.w3.org/2000/svg">
<path d="M20.2676 4.48884H23.2393C23.3879 4.48884 23.6108 4.41482 23.6851 4.26678C23.7594 4.04473 23.8337 3.89669 23.7594 3.74865L22.7193 1.08396C22.645 0.935924 22.5707 0.861905 22.4221 0.787886C22.2735 0.713867 22.1249 0.713867 21.9764 0.787886C21.6792 0.935924 21.5306 1.232 21.6792 1.45406L22.1249 2.49032L21.6792 2.26827C19.5247 1.232 17.296 0.713867 14.9929 0.713867C11.2783 0.713867 7.638 2.12023 4.8892 4.85893C-0.0140702 9.67017 -0.682698 17.2201 3.32907 22.7715C3.47765 22.9936 3.84911 23.0676 4.07199 22.9196C4.29486 22.7715 4.36916 22.4015 4.22057 22.1794C0.505974 17.0721 1.1746 10.1143 5.70641 5.59913C9.64389 1.75013 15.6615 0.713867 20.7134 3.08248L21.4563 3.45257H20.2676C19.9705 3.45257 19.7476 3.67463 19.7476 3.97071C19.7476 4.26678 19.9705 4.48884 20.2676 4.48884Z" fill="#3B3A3C"/>
<path d="M8.15803 27.5088C10.2382 28.6191 12.6156 29.2853 14.9929 29.2853C18.7818 29.2853 22.4221 27.8049 25.0966 25.2142C29.9999 20.403 30.6685 12.853 26.731 7.30161C26.5824 7.07955 26.211 7.00553 25.9881 7.15357C25.7652 7.30161 25.6909 7.67171 25.8395 7.89376C29.4798 13.0011 28.8855 19.9589 24.3537 24.4C20.1933 28.4711 13.8785 29.3593 8.75237 26.6206L8.08374 26.2505H9.42099C9.56958 26.2505 9.64387 26.2505 9.79245 26.1765C9.94104 26.1025 10.0153 25.8804 10.0153 25.7324C10.0153 25.5843 9.94104 25.4363 9.86675 25.3623C9.79245 25.2882 9.64387 25.2142 9.49529 25.2142H6.5979C6.44932 25.2142 6.22644 25.2882 6.15215 25.4363C6.00356 25.5103 5.92927 25.7324 6.00356 25.8804L7.11794 28.5451C7.19224 28.8412 7.56369 28.9152 7.78657 28.8412C7.93515 28.7671 8.00945 28.6931 8.08374 28.5451C8.15803 28.397 8.15803 28.249 8.08374 28.101L7.71228 27.1387L8.15803 27.5088Z" fill="#3B3A3C"/>
<path d="M11.4267 19.0706H18.6331C18.9302 19.0706 19.1531 18.8485 19.1531 18.5524V13.3711H21.6047C21.8276 13.3711 21.9762 13.2231 22.1248 13.075C22.1991 12.853 22.1991 12.6309 22.0505 12.4829L15.4385 5.30303C15.2156 5.08097 14.8442 5.08097 14.6213 5.30303L8.00932 12.5569C7.86073 12.7049 7.86073 12.927 7.93502 13.1491C8.00932 13.3711 8.23219 13.4451 8.45507 13.4451H11.5753C11.8725 13.4451 12.0954 13.2231 12.0954 12.927C12.0954 12.6309 11.8725 12.4089 11.5753 12.4089H9.64374L15.0671 6.48734L20.4904 12.3348H18.7074C18.4102 12.3348 18.1873 12.5569 18.1873 12.853V18.0343H12.0211V15.7397C12.0211 15.4436 11.7982 15.2216 11.501 15.2216C11.2039 15.2216 10.981 15.4436 10.981 15.7397V18.5524C10.9067 18.8485 11.1296 19.0706 11.4267 19.0706Z" fill="#3B3A3C"/>
<path d="M18.6335 20.9952H11.4272C11.13 20.9952 10.9071 21.2172 10.9071 21.5133C10.9071 21.8094 11.13 22.0314 11.4272 22.0314H18.6335C18.9307 22.0314 19.1535 21.8094 19.1535 21.5133C19.1535 21.2172 18.9307 20.9952 18.6335 20.9952Z" fill="#3B3A3C"/>
<path d="M17.2219 23.8078H12.9129C12.6158 23.8078 12.3929 24.0299 12.3929 24.326C12.3929 24.622 12.6158 24.8441 12.9129 24.8441H17.2219C17.519 24.8441 17.7419 24.622 17.7419 24.326C17.7419 24.0299 17.519 23.8078 17.2219 23.8078Z" fill="#3B3A3C"/>
</svg>
