<svg width="28" height="20" viewBox="0 0 28 20" fill="none" xmlns="http://www.w3.org/2000/svg">
<rect width="28" height="20" rx="2" fill="white"/>
<mask id="mask0_7842_923" style="mask-type:alpha" maskUnits="userSpaceOnUse" x="0" y="0" width="28" height="20">
<rect width="28" height="20" rx="2" fill="white"/>
</mask>
<g mask="url(#mask0_7842_923)">
<path fill-rule="evenodd" clip-rule="evenodd" d="M28 0H0V1.33333H28V0ZM28 2.66667H0V4H28V2.66667ZM0 5.33333H28V6.66667H0V5.33333ZM28 8H0V9.33333H28V8ZM0 10.6667H28V12H0V10.6667ZM28 13.3333H0V14.6667H28V13.3333ZM0 16H28V17.3333H0V16ZM28 18.6667H0V20H28V18.6667Z" fill="#D02F44"/>
<rect width="12" height="9.33333" fill="#46467F"/>
<g filter="url(#filter0_d_7842_923)">
<path fill-rule="evenodd" clip-rule="evenodd" d="M2.66634 1.99967C2.66634 2.36786 2.36786 2.66634 1.99967 2.66634C1.63148 2.66634 1.33301 2.36786 1.33301 1.99967C1.33301 1.63148 1.63148 1.33301 1.99967 1.33301C2.36786 1.33301 2.66634 1.63148 2.66634 1.99967ZM5.33301 1.99967C5.33301 2.36786 5.03453 2.66634 4.66634 2.66634C4.29815 2.66634 3.99967 2.36786 3.99967 1.99967C3.99967 1.63148 4.29815 1.33301 4.66634 1.33301C5.03453 1.33301 5.33301 1.63148 5.33301 1.99967ZM7.33301 2.66634C7.7012 2.66634 7.99967 2.36786 7.99967 1.99967C7.99967 1.63148 7.7012 1.33301 7.33301 1.33301C6.96482 1.33301 6.66634 1.63148 6.66634 1.99967C6.66634 2.36786 6.96482 2.66634 7.33301 2.66634ZM10.6663 1.99967C10.6663 2.36786 10.3679 2.66634 9.99967 2.66634C9.63148 2.66634 9.33301 2.36786 9.33301 1.99967C9.33301 1.63148 9.63148 1.33301 9.99967 1.33301C10.3679 1.33301 10.6663 1.63148 10.6663 1.99967ZM3.33301 3.99967C3.7012 3.99967 3.99967 3.7012 3.99967 3.33301C3.99967 2.96482 3.7012 2.66634 3.33301 2.66634C2.96482 2.66634 2.66634 2.96482 2.66634 3.33301C2.66634 3.7012 2.96482 3.99967 3.33301 3.99967ZM6.66634 3.33301C6.66634 3.7012 6.36786 3.99967 5.99967 3.99967C5.63148 3.99967 5.33301 3.7012 5.33301 3.33301C5.33301 2.96482 5.63148 2.66634 5.99967 2.66634C6.36786 2.66634 6.66634 2.96482 6.66634 3.33301ZM8.66634 3.99967C9.03453 3.99967 9.33301 3.7012 9.33301 3.33301C9.33301 2.96482 9.03453 2.66634 8.66634 2.66634C8.29815 2.66634 7.99967 2.96482 7.99967 3.33301C7.99967 3.7012 8.29815 3.99967 8.66634 3.99967ZM10.6663 4.66634C10.6663 5.03453 10.3679 5.33301 9.99967 5.33301C9.63148 5.33301 9.33301 5.03453 9.33301 4.66634C9.33301 4.29815 9.63148 3.99967 9.99967 3.99967C10.3679 3.99967 10.6663 4.29815 10.6663 4.66634ZM7.33301 5.33301C7.7012 5.33301 7.99967 5.03453 7.99967 4.66634C7.99967 4.29815 7.7012 3.99967 7.33301 3.99967C6.96482 3.99967 6.66634 4.29815 6.66634 4.66634C6.66634 5.03453 6.96482 5.33301 7.33301 5.33301ZM5.33301 4.66634C5.33301 5.03453 5.03453 5.33301 4.66634 5.33301C4.29815 5.33301 3.99967 5.03453 3.99967 4.66634C3.99967 4.29815 4.29815 3.99967 4.66634 3.99967C5.03453 3.99967 5.33301 4.29815 5.33301 4.66634ZM1.99967 5.33301C2.36786 5.33301 2.66634 5.03453 2.66634 4.66634C2.66634 4.29815 2.36786 3.99967 1.99967 3.99967C1.63148 3.99967 1.33301 4.29815 1.33301 4.66634C1.33301 5.03453 1.63148 5.33301 1.99967 5.33301ZM3.99967 5.99967C3.99967 6.36786 3.7012 6.66634 3.33301 6.66634C2.96482 6.66634 2.66634 6.36786 2.66634 5.99967C2.66634 5.63148 2.96482 5.33301 3.33301 5.33301C3.7012 5.33301 3.99967 5.63148 3.99967 5.99967ZM5.99967 6.66634C6.36786 6.66634 6.66634 6.36786 6.66634 5.99967C6.66634 5.63148 6.36786 5.33301 5.99967 5.33301C5.63148 5.33301 5.33301 5.63148 5.33301 5.99967C5.33301 6.36786 5.63148 6.66634 5.99967 6.66634ZM9.33301 5.99967C9.33301 6.36786 9.03453 6.66634 8.66634 6.66634C8.29815 6.66634 7.99967 6.36786 7.99967 5.99967C7.99967 5.63148 8.29815 5.33301 8.66634 5.33301C9.03453 5.33301 9.33301 5.63148 9.33301 5.99967ZM9.99967 7.99967C10.3679 7.99967 10.6663 7.7012 10.6663 7.33301C10.6663 6.96482 10.3679 6.66634 9.99967 6.66634C9.63148 6.66634 9.33301 6.96482 9.33301 7.33301C9.33301 7.7012 9.63148 7.99967 9.99967 7.99967ZM7.99967 7.33301C7.99967 7.7012 7.7012 7.99967 7.33301 7.99967C6.96482 7.99967 6.66634 7.7012 6.66634 7.33301C6.66634 6.96482 6.96482 6.66634 7.33301 6.66634C7.7012 6.66634 7.99967 6.96482 7.99967 7.33301ZM4.66634 7.99967C5.03453 7.99967 5.33301 7.7012 5.33301 7.33301C5.33301 6.96482 5.03453 6.66634 4.66634 6.66634C4.29815 6.66634 3.99967 6.96482 3.99967 7.33301C3.99967 7.7012 4.29815 7.99967 4.66634 7.99967ZM2.66634 7.33301C2.66634 7.7012 2.36786 7.99967 1.99967 7.99967C1.63148 7.99967 1.33301 7.7012 1.33301 7.33301C1.33301 6.96482 1.63148 6.66634 1.99967 6.66634C2.36786 6.66634 2.66634 6.96482 2.66634 7.33301Z" fill="url(#paint0_linear_7842_923)"/>
</g>
</g>
<defs>
<filter id="filter0_d_7842_923" x="1.33301" y="1.33301" width="9.33301" height="7.66699" filterUnits="userSpaceOnUse" color-interpolation-filters="sRGB">
<feFlood flood-opacity="0" result="BackgroundImageFix"/>
<feColorMatrix in="SourceAlpha" type="matrix" values="0 0 0 0 0 0 0 0 0 0 0 0 0 0 0 0 0 0 127 0" result="hardAlpha"/>
<feOffset dy="1"/>
<feColorMatrix type="matrix" values="0 0 0 0 0 0 0 0 0 0 0 0 0 0 0 0 0 0 0.06 0"/>
<feBlend mode="normal" in2="BackgroundImageFix" result="effect1_dropShadow_7842_923"/>
<feBlend mode="normal" in="SourceGraphic" in2="effect1_dropShadow_7842_923" result="shape"/>
</filter>
<linearGradient id="paint0_linear_7842_923" x1="1.33301" y1="1.33301" x2="1.33301" y2="7.99967" gradientUnits="userSpaceOnUse">
<stop stop-color="white"/>
<stop offset="1" stop-color="#F0F0F0"/>
</linearGradient>
</defs>
</svg>
