<svg width="28" height="28" viewBox="0 0 28 28" fill="none" xmlns="http://www.w3.org/2000/svg">
<path d="M24 0H4C1.79086 0 0 1.79086 0 4V24C0 26.2091 1.79086 28 4 28H24C26.2091 28 28 26.2091 28 24V4C28 1.79086 26.2091 0 24 0Z" fill="#1BD741"/>
<path d="M4.20801 23.802L5.57953 18.9308C4.69756 17.4325 4.2332 15.7277 4.2332 13.9764C4.2332 8.58419 8.62012 4.19727 14.0124 4.19727C19.4046 4.19727 23.7915 8.58419 23.7915 13.9764C23.7915 19.3687 19.4046 23.7556 14.0124 23.7556C12.3322 23.7556 10.687 23.3256 9.23151 22.5089L4.20801 23.802ZM9.48832 20.7298L9.78766 20.9126C11.0566 21.6873 12.5175 22.0968 14.0124 22.0968C18.4899 22.0968 22.1326 18.454 22.1326 13.9764C22.1326 9.4989 18.4899 5.85614 14.0124 5.85614C9.53483 5.85614 5.89207 9.4989 5.89207 13.9764C5.89207 15.5366 6.33548 17.0516 7.17426 18.3578L7.37584 18.6717L6.58603 21.4769L9.48832 20.7298Z" fill="white"/>
<path d="M11.2655 9.42539L10.631 9.3908C10.4316 9.37992 10.2361 9.44652 10.0855 9.57739C9.77787 9.84453 9.28598 10.361 9.1349 11.034C8.9096 12.0375 9.25778 13.2663 10.1589 14.4951C11.0601 15.7239 12.7394 17.69 15.709 18.5297C16.6659 18.8002 17.4186 18.6178 17.9994 18.2463C18.4594 17.9521 18.7765 17.4798 18.8908 16.9459L18.9921 16.4727C19.0243 16.3222 18.9479 16.1696 18.8082 16.1052L16.6637 15.1167C16.5244 15.0526 16.3594 15.0931 16.2657 15.2145L15.4238 16.3059C15.3602 16.3884 15.2513 16.421 15.153 16.3865C14.5765 16.1839 12.6452 15.375 11.5855 13.3338C11.5395 13.2452 11.551 13.1378 11.6161 13.0623L12.4208 12.1314C12.503 12.0364 12.5237 11.9028 12.4743 11.7873L11.5499 9.62451C11.5007 9.50938 11.3904 9.43221 11.2655 9.42539Z" fill="white"/>
</svg>
