<svg width="24" height="25" viewBox="0 0 24 25" fill="none" xmlns="http://www.w3.org/2000/svg">
<rect y="0.0268555" width="24" height="24" rx="12" fill="#9C9C9C"/>
<path d="M18.9882 8.59156C18.8235 7.9798 18.3412 7.49744 17.7294 7.33274C16.6118 7.02686 12.1412 7.02686 12.1412 7.02686C12.1412 7.02686 7.67059 7.02686 6.55294 7.32097C5.95294 7.48568 5.45882 7.9798 5.29412 8.59156C5 9.70921 5 12.0269 5 12.0269C5 12.0269 5 14.3563 5.29412 15.4621C5.45882 16.0739 5.94118 16.5563 6.55294 16.721C7.68235 17.0269 12.1412 17.0269 12.1412 17.0269C12.1412 17.0269 16.6118 17.0269 17.7294 16.7327C18.3412 16.568 18.8235 16.0857 18.9882 15.4739C19.2824 14.3563 19.2824 12.0386 19.2824 12.0386C19.2824 12.0386 19.2941 9.70921 18.9882 8.59156Z" fill="white"/>
<path d="M10.7178 14.1681L14.4354 12.0269L10.7178 9.88574V14.1681Z" fill="#9C9C9C"/>
</svg>
